<?xml version="1.0" encoding="UTF-8" standalone="no"?>
<!-- Created with Inkscape (http://www.inkscape.org/) -->

<svg
   xmlns:dc="http://purl.org/dc/elements/1.1/"
   xmlns:cc="http://creativecommons.org/ns#"
   xmlns:rdf="http://www.w3.org/1999/02/22-rdf-syntax-ns#"
   xmlns:svg="http://www.w3.org/2000/svg"
   xmlns="http://www.w3.org/2000/svg"
   xmlns:sodipodi="http://sodipodi.sourceforge.net/DTD/sodipodi-0.dtd"
   xmlns:inkscape="http://www.inkscape.org/namespaces/inkscape"
   width="297mm"
   height="210mm"
   viewBox="0 0 297 210"
   version="1.1"
   id="svg8"
   inkscape:version="0.92.1 r15371"
   sodipodi:docname="pixloger color r.svg"
   inkscape:export-filename="C:\Users\acer\Pictures\pixloger\pixloger color.png"
   inkscape:export-xdpi="200.72145"
   inkscape:export-ydpi="200.72145">
  <defs
     id="defs2" />
  <sodipodi:namedview
     id="base"
     pagecolor="#ffffff"
     bordercolor="#666666"
     borderopacity="1.0"
     inkscape:pageopacity="0.0"
     inkscape:pageshadow="2"
     inkscape:zoom="0.35"
     inkscape:cx="830"
     inkscape:cy="694.28571"
     inkscape:document-units="mm"
     inkscape:current-layer="layer1"
     showgrid="false"
     inkscape:window-width="1366"
     inkscape:window-height="715"
     inkscape:window-x="-8"
     inkscape:window-y="-8"
     inkscape:window-maximized="1" />
  <metadata
     id="metadata5">
    <rdf:RDF>
      <cc:Work
         rdf:about="">
        <dc:format>image/svg+xml</dc:format>
        <dc:type
           rdf:resource="http://purl.org/dc/dcmitype/StillImage" />
        <dc:title></dc:title>
      </cc:Work>
    </rdf:RDF>
  </metadata>
  <g
     inkscape:label="Layer 1"
     inkscape:groupmode="layer"
     id="layer1"
     transform="translate(0,-87)">
    <path
       style="color:#000000;font-style:normal;font-variant:normal;font-weight:normal;font-stretch:normal;font-size:medium;line-height:normal;font-family:sans-serif;font-variant-ligatures:normal;font-variant-position:normal;font-variant-caps:normal;font-variant-numeric:normal;font-variant-alternates:normal;font-feature-settings:normal;text-indent:0;text-align:start;text-decoration:none;text-decoration-line:none;text-decoration-style:solid;text-decoration-color:#000000;letter-spacing:normal;word-spacing:normal;text-transform:none;writing-mode:lr-tb;direction:ltr;text-orientation:mixed;dominant-baseline:auto;baseline-shift:baseline;text-anchor:start;white-space:normal;shape-padding:0;clip-rule:nonzero;display:inline;overflow:visible;visibility:visible;opacity:1;isolation:auto;mix-blend-mode:normal;color-interpolation:sRGB;color-interpolation-filters:linearRGB;solid-color:#000000;solid-opacity:1;vector-effect:none;fill:#ff2a2a;fill-opacity:1;fill-rule:nonzero;stroke:none;stroke-width:7.65615988;stroke-linecap:round;stroke-linejoin:round;stroke-miterlimit:4;stroke-dasharray:none;stroke-dashoffset:0;stroke-opacity:1;paint-order:markers fill stroke;color-rendering:auto;image-rendering:auto;shape-rendering:auto;text-rendering:auto;enable-background:accumulate"
       d="m 283.14352,171.23033 c -0.75299,0.004 -1.5047,0.0529 -2.25013,0.14617 -3.26864,0.40899 -6.44231,1.68266 -9.13841,3.75631 -0.15052,0.11576 -0.29928,0.23403 -0.44673,0.35477 -0.0177,0.0145 -0.0351,0.0295 -0.0527,0.0441 -0.12059,0.0995 -0.24006,0.20075 -0.3585,0.30356 -0.038,0.033 -0.0759,0.0661 -0.11365,0.0994 -0.10535,0.0929 -0.20971,0.1874 -0.31328,0.28299 -0.0321,0.0296 -0.0645,0.0587 -0.0965,0.0886 -0.13298,0.12448 -0.26488,0.25056 -0.39476,0.37944 -7.3e-4,8.7e-4 -10e-4,0.002 -0.003,0.003 -0.13258,0.13161 -0.26329,0.26569 -0.39252,0.40187 -0.0308,0.0324 -0.0607,0.0657 -0.0912,0.0983 -0.0932,0.0997 -0.18562,0.20038 -0.27702,0.30244 -0.043,0.0479 -0.0857,0.0962 -0.12822,0.14467 -0.0837,0.0954 -0.16651,0.19223 -0.2486,0.28972 -0.0377,0.0447 -0.0756,0.0891 -0.1129,0.13421 -0.11762,0.14233 -0.23396,0.28595 -0.34803,0.43253 a 3.8284627,3.8284627 0 0 0 -0.0213,0.0284 c -0.0969,0.12699 -0.19208,0.25477 -0.28562,0.38355 -0.0935,0.12879 -0.18541,0.25829 -0.2755,0.38879 -6e-5,9e-5 6e-5,2.9e-4 0,3.8e-4 -0.09,0.13042 -0.17847,0.26159 -0.26506,0.39365 -0.0867,0.13223 -0.17173,0.26508 -0.25495,0.39888 -0.0832,0.13372 -0.16444,0.26816 -0.24411,0.40337 -0.15945,0.27051 -0.31188,0.54378 -0.45721,0.81982 -0.0726,0.13797 -0.14325,0.27647 -0.21235,0.41571 -0.20728,0.41781 -0.39858,0.84092 -0.57344,1.2688 -0.0583,0.14259 -0.11473,0.2856 -0.16936,0.42916 -0.10931,0.28722 -0.21119,0.57629 -0.3058,0.86693 -0.0945,0.29053 -0.18162,0.58255 -0.26131,0.87589 a 3.8284627,3.8284627 0 0 0 -0.004,0.0142 c -0.0396,0.14771 -0.0771,0.29545 -0.11291,0.44374 -1e-5,1.2e-4 4e-5,2.6e-4 0,3.8e-4 -0.0358,0.14817 -0.07,0.29655 -0.10205,0.44523 -2e-5,1.2e-4 10e-6,2.6e-4 0,3.8e-4 -0.0321,0.14869 -0.0624,0.29759 -0.0908,0.44673 -0.14211,0.74639 -0.238,1.49796 -0.28897,2.25087 a 3.8284627,3.8284627 0 0 0 0,0.002 c -0.0127,0.18755 -0.0217,0.37506 -0.0288,0.56262 -0.001,0.0368 -0.002,0.0735 -0.004,0.11028 -0.006,0.18216 -0.009,0.36413 -0.0101,0.54618 -2.1e-4,0.0677 -4.9e-4,0.13533 0,0.20299 10e-4,0.16566 0.005,0.33136 0.0109,0.49683 10e-4,0.0451 0.004,0.0902 0.005,0.13533 0.004,0.0992 0.009,0.19842 0.0142,0.29757 -0.18265,-0.42595 -0.0303,12.26045 -0.0303,14.02371 -0.0308,2.05236 1.62447,3.73275 3.67706,3.73275 2.05258,0 3.70785,-1.68039 3.67705,-3.73275 v -11.51417 -0.69945 c 0.053,-1.13854 0.28796,-3.07897 0.32636,-3.6464 0.0481,-0.71048 0.16438,-1.41656 0.34916,-2.11067 l 10e-4,-0.003 c 0.36594,-1.34566 1.04679,-2.74903 1.99253,-3.99145 1.90549,-2.43883 4.57743,-3.85041 7.41055,-4.2049 1.41986,-0.17766 2.87239,-0.0844 4.26996,0.28822 2.05246,0.57064 4.17611,-0.64406 4.72492,-2.70246 0.5488,-2.05839 -0.68844,-4.16884 -2.75256,-4.69575 -1.18197,-0.31514 -2.38279,-0.51135 -3.58733,-0.59178 -0.4517,-0.0302 -0.90373,-0.0442 -1.35553,-0.0419 z m -18.54151,21.43688 c 10e-4,0.007 0.003,0.0147 0.004,0.0221 -0.001,-0.007 -0.003,-0.0147 -0.004,-0.0221 z m 0.16336,0.56599 c 0.0108,0.0292 0.0226,0.0579 0.034,0.0867 -0.0116,-0.0288 -0.0231,-0.0576 -0.034,-0.0867 z"
       id="path5165-9"
       inkscape:connector-curvature="0" />
    <path
       style="color:#000000;font-style:normal;font-variant:normal;font-weight:normal;font-stretch:normal;font-size:medium;line-height:normal;font-family:sans-serif;font-variant-ligatures:normal;font-variant-position:normal;font-variant-caps:normal;font-variant-numeric:normal;font-variant-alternates:normal;font-feature-settings:normal;text-indent:0;text-align:start;text-decoration:none;text-decoration-line:none;text-decoration-style:solid;text-decoration-color:#000000;letter-spacing:normal;word-spacing:normal;text-transform:none;writing-mode:lr-tb;direction:ltr;text-orientation:mixed;dominant-baseline:auto;baseline-shift:baseline;text-anchor:start;white-space:normal;shape-padding:0;clip-rule:nonzero;display:inline;overflow:visible;visibility:visible;opacity:1;isolation:auto;mix-blend-mode:normal;color-interpolation:sRGB;color-interpolation-filters:linearRGB;solid-color:#000000;solid-opacity:1;vector-effect:none;fill:#000000;fill-opacity:1;fill-rule:evenodd;stroke:none;stroke-width:7.65615988;stroke-linecap:round;stroke-linejoin:round;stroke-miterlimit:4;stroke-dasharray:none;stroke-dashoffset:0;stroke-opacity:1;color-rendering:auto;image-rendering:auto;shape-rendering:auto;text-rendering:auto;enable-background:accumulate"
       d="m 113.1694,156.1798 a 3.8284628,3.8284628 0 0 0 -3.74425,3.90674 c 0,0 0.0506,7.88047 0.0763,16.08189 0.0129,4.10071 0.0195,8.2823 0.01,11.59021 -0.01,3.3079 -0.0756,6.14865 -0.0749,6.13915 -0.23633,2.97866 0.38228,8.50116 5.45388,12.38568 2.4423,1.87065 4.87498,2.09662 6.97984,2.39067 2.10486,0.29405 3.87141,0.33204 3.87141,0.33204 a 3.8284628,3.8284628 0 1 0 0.17803,-7.65381 c 0,0 -1.37203,-0.0354 -2.98975,-0.26139 -1.61771,-0.22599 -3.49016,-0.96725 -3.38395,-0.8859 -3.01884,-2.31225 -2.65276,-3.4855 -2.47685,-5.70256 0.10381,-1.30842 0.0892,-3.38477 0.0989,-6.72128 0.01,-3.3365 0.003,-7.5278 -0.01,-11.63683 -0.0258,-8.21807 -0.0777,-16.10733 -0.0777,-16.10733 a 3.8284628,3.8284628 0 0 0 -3.91098,-3.85728 z"
       id="path5134-5"
       inkscape:connector-curvature="0" />
    <path
       style="color:#000000;font-style:normal;font-variant:normal;font-weight:normal;font-stretch:normal;font-size:medium;line-height:normal;font-family:sans-serif;font-variant-ligatures:normal;font-variant-position:normal;font-variant-caps:normal;font-variant-numeric:normal;font-variant-alternates:normal;font-feature-settings:normal;text-indent:0;text-align:start;text-decoration:none;text-decoration-line:none;text-decoration-style:solid;text-decoration-color:#000000;letter-spacing:normal;word-spacing:normal;text-transform:none;writing-mode:lr-tb;direction:ltr;text-orientation:mixed;dominant-baseline:auto;baseline-shift:baseline;text-anchor:start;white-space:normal;shape-padding:0;clip-rule:nonzero;display:inline;overflow:visible;visibility:visible;opacity:1;isolation:auto;mix-blend-mode:normal;color-interpolation:sRGB;color-interpolation-filters:linearRGB;solid-color:#000000;solid-opacity:1;vector-effect:none;fill:#000000;fill-opacity:1;fill-rule:nonzero;stroke:none;stroke-width:7.65615988;stroke-linecap:round;stroke-linejoin:round;stroke-miterlimit:4;stroke-dasharray:none;stroke-dashoffset:0;stroke-opacity:1;paint-order:markers fill stroke;color-rendering:auto;image-rendering:auto;shape-rendering:auto;text-rendering:auto;enable-background:accumulate"
       d="m 24.465132,170.89878 c -0.377226,0.002 -0.754567,0.0156 -1.131597,0.0404 -3.619493,0.23777 -7.204905,1.516 -10.267779,3.89537 -4.0838396,3.1725 -6.5254651,7.73838 -7.1268095,12.50855 a 3.8284627,3.8284627 0 0 0 -0.029161,0.78169 3.8284627,3.8284627 0 0 0 -0.096824,0.89122 v 32.24149 a 3.8284627,3.8284627 0 1 0 7.6569095,0 v -32.24149 a 3.8284627,3.8284627 0 0 0 -0.01049,-0.29308 3.8284627,3.8284627 0 0 0 0.07552,-0.42169 c 0.357939,-2.83938 1.776299,-5.51658 4.227336,-7.42064 4.902059,-3.80813 11.848082,-2.9389 15.660735,1.95965 3.812659,4.89854 2.949579,11.84504 -1.945442,15.66223 a 3.8284627,3.8284627 0 0 0 -0.01273,0.0112 3.8284627,3.8284627 0 0 0 -0.01982,0.0142 c -1.22727,0.94976 -2.570741,1.59521 -3.969019,1.96525 -1.398263,0.37004 -2.850428,0.46029 -4.269953,0.28 a 3.8285078,3.8285078 0 0 0 -0.964871,7.59598 c 2.384808,0.30287 4.828242,0.15113 7.193352,-0.47477 2.141443,-0.56672 4.195274,-1.57964 6.086799,-2.9305 a 3.8284627,3.8284627 0 0 0 0.598888,-0.37459 c 0.0036,-0.003 0.0077,-0.004 0.01121,-0.007 a 3.8284627,3.8284627 0 0 0 0.0157,-0.0127 3.8284627,3.8284627 0 0 0 0.03964,-0.0295 c 0.0115,-0.009 0.01953,-0.0205 0.03103,-0.0295 a 3.8284627,3.8284627 0 0 0 0.510283,-0.48748 c 7.633204,-6.4632 8.932526,-17.92408 2.736512,-25.88479 -3.722189,-4.78231 -9.340966,-7.27318 -14.999423,-7.23934 z"
       id="path5136-5"
       inkscape:connector-curvature="0" />
    <path
       style="color:#000000;font-style:normal;font-variant:normal;font-weight:normal;font-stretch:normal;font-size:medium;line-height:normal;font-family:sans-serif;font-variant-ligatures:normal;font-variant-position:normal;font-variant-caps:normal;font-variant-numeric:normal;font-variant-alternates:normal;font-feature-settings:normal;text-indent:0;text-align:start;text-decoration:none;text-decoration-line:none;text-decoration-style:solid;text-decoration-color:#000000;letter-spacing:normal;word-spacing:normal;text-transform:none;writing-mode:lr-tb;direction:ltr;text-orientation:mixed;dominant-baseline:auto;baseline-shift:baseline;text-anchor:start;white-space:normal;shape-padding:0;clip-rule:nonzero;display:inline;overflow:visible;visibility:visible;opacity:1;isolation:auto;mix-blend-mode:normal;color-interpolation:sRGB;color-interpolation-filters:linearRGB;solid-color:#000000;solid-opacity:1;vector-effect:none;fill:#000000;fill-opacity:1;fill-rule:evenodd;stroke:none;stroke-width:7.35419798;stroke-linecap:round;stroke-linejoin:round;stroke-miterlimit:4;stroke-dasharray:none;stroke-dashoffset:0;stroke-opacity:1;color-rendering:auto;image-rendering:auto;shape-rendering:auto;text-rendering:auto;enable-background:accumulate"
       d="m 53.834469,169.36096 a 3.6774667,3.6774667 0 0 0 -3.621323,3.72871 v 29.7491 a 3.6774667,3.6774667 0 1 0 7.354261,0 v -29.7491 a 3.6774667,3.6774667 0 0 0 -3.732938,-3.72871 z"
       id="path5140-2"
       inkscape:connector-curvature="0" />
    <path
       style="color:#000000;font-style:normal;font-variant:normal;font-weight:normal;font-stretch:normal;font-size:medium;line-height:normal;font-family:sans-serif;font-variant-ligatures:normal;font-variant-position:normal;font-variant-caps:normal;font-variant-numeric:normal;font-variant-alternates:normal;font-feature-settings:normal;text-indent:0;text-align:start;text-decoration:none;text-decoration-line:none;text-decoration-style:solid;text-decoration-color:#000000;letter-spacing:normal;word-spacing:normal;text-transform:none;writing-mode:lr-tb;direction:ltr;text-orientation:mixed;dominant-baseline:auto;baseline-shift:baseline;text-anchor:start;white-space:normal;shape-padding:0;clip-rule:nonzero;display:inline;overflow:visible;visibility:visible;opacity:1;isolation:auto;mix-blend-mode:normal;color-interpolation:sRGB;color-interpolation-filters:linearRGB;solid-color:#000000;solid-opacity:1;vector-effect:none;fill:#000000;fill-opacity:1;fill-rule:nonzero;stroke:none;stroke-width:7.65615988;stroke-linecap:round;stroke-linejoin:round;stroke-miterlimit:4;stroke-dasharray:none;stroke-dashoffset:0;stroke-opacity:1;paint-order:markers fill stroke;color-rendering:auto;image-rendering:auto;shape-rendering:auto;text-rendering:auto;enable-background:accumulate"
       d="m 68.645044,169.32269 a 3.8287049,3.8287049 0 1 0 -0.08748,7.65691 c 6.20701,0.0714 11.100605,5.07491 11.03489,11.28199 -0.06569,6.20708 -5.065125,11.10609 -11.272272,11.04611 a 3.8284627,3.8284627 0 1 0 -0.07364,7.65541 c 6.199906,0.0599 11.755225,-2.92807 15.234932,-7.55859 3.479707,4.63052 9.035026,7.6185 15.234939,7.55859 a 3.8284627,3.8284627 0 1 0 -0.07476,-7.65541 c -6.207147,0.06 -11.205436,-4.83903 -11.271158,-11.04611 -0.06569,-6.20708 4.827873,-11.21054 11.03489,-11.28199 a 3.8287049,3.8287049 0 1 0 -0.08748,-7.65691 c -6.058166,0.0697 -11.438867,3.03639 -14.836054,7.56009 -3.397179,-4.5238 -8.778553,-7.49035 -14.836799,-7.56009 z"
       id="path5143-2"
       inkscape:connector-curvature="0" />
    <path
       style="color:#000000;font-style:normal;font-variant:normal;font-weight:normal;font-stretch:normal;font-size:medium;line-height:normal;font-family:sans-serif;font-variant-ligatures:normal;font-variant-position:normal;font-variant-caps:normal;font-variant-numeric:normal;font-variant-alternates:normal;font-feature-settings:normal;text-indent:0;text-align:start;text-decoration:none;text-decoration-line:none;text-decoration-style:solid;text-decoration-color:#000000;letter-spacing:normal;word-spacing:normal;text-transform:none;writing-mode:lr-tb;direction:ltr;text-orientation:mixed;dominant-baseline:auto;baseline-shift:baseline;text-anchor:start;white-space:normal;shape-padding:0;clip-rule:nonzero;display:inline;overflow:visible;visibility:visible;opacity:1;isolation:auto;mix-blend-mode:normal;color-interpolation:sRGB;color-interpolation-filters:linearRGB;solid-color:#000000;solid-opacity:1;vector-effect:none;fill:#000000;fill-opacity:1;fill-rule:nonzero;stroke:none;stroke-width:7.65615988;stroke-linecap:round;stroke-linejoin:round;stroke-miterlimit:4;stroke-dasharray:none;stroke-dashoffset:0;stroke-opacity:1;paint-order:markers fill stroke;color-rendering:auto;image-rendering:auto;shape-rendering:auto;text-rendering:auto;enable-background:accumulate"
       d="m 150.89574,170.89878 c -0.37723,0.002 -0.75456,0.0156 -1.13159,0.0404 -3.61951,0.23777 -7.20491,1.516 -10.2678,3.89537 -4.08383,3.1725 -6.52545,7.73838 -7.12679,12.50855 a 3.8284627,3.8284627 0 0 0 0.0145,1.163 c -0.33405,5.75385 1.97166,11.58184 6.65168,15.53363 a 3.8284627,3.8284627 0 0 0 0.5155,0.49309 c 0.003,0.002 0.004,0.005 0.007,0.007 a 3.8284627,3.8284627 0 0 0 0.0131,0.009 3.8284627,3.8284627 0 0 0 0.0407,0.0336 c 0.0122,0.009 0.026,0.015 0.0381,0.0243 a 3.8284627,3.8284627 0 0 0 0.59778,0.37309 c 1.88492,1.34165 3.92918,2.35053 6.06136,2.9148 0.69327,0.18347 1.39323,0.32482 2.09649,0.42729 a 3.8284659,3.8284659 0 0 0 0.26578,0.0475 c 0.70599,0.0897 1.41706,0.13819 2.12976,0.14767 4.9e-4,0 7.2e-4,-1e-5 0.001,0 0.0947,0.001 0.18938,0.002 0.28413,0.002 0.0947,1.7e-4 0.18941,-2.5e-4 0.2841,-0.002 2.4e-4,-1e-5 5e-4,0 7.2e-4,0 2.5e-4,-1e-5 4.9e-4,0 7.2e-4,0 0.71268,-0.009 1.42412,-0.058 2.13012,-0.14767 a 3.8284627,3.8284627 0 0 0 0.36112,-0.062 c 0.67104,-0.10132 1.33933,-0.23758 2.00115,-0.41272 2.14142,-0.56671 4.19527,-1.57963 6.08678,-2.9305 a 3.8284627,3.8284627 0 0 0 0.59888,-0.37458 c 0.004,-0.003 0.008,-0.004 0.0112,-0.007 a 3.8284627,3.8284627 0 0 0 0.0157,-0.0127 3.8284627,3.8284627 0 0 0 0.0396,-0.0295 c 0.0115,-0.009 0.0195,-0.0205 0.031,-0.0295 a 3.8284627,3.8284627 0 0 0 0.51028,-0.48749 c 4.67061,-3.95469 6.96889,-9.78045 6.63073,-15.53064 a 3.8284627,3.8284627 0 0 0 0.0157,-1.14917 c -0.60149,-4.77016 -3.04334,-9.33605 -7.12718,-12.50855 -3.06287,-2.37937 -6.6479,-3.6576 -10.2674,-3.89537 -0.44083,-0.029 -0.88242,-0.0407 -1.32337,-0.0389 -0.0638,-2.6e-4 -0.12759,-0.002 -0.19141,-0.002 z m 0.19141,7.61392 c 3.30258,0.01 6.55951,1.49202 8.76644,4.32753 3.81267,4.89854 2.94959,11.84504 -1.94543,15.66223 a 3.8284627,3.8284627 0 0 0 -0.0127,0.0112 3.8284627,3.8284627 0 0 0 -0.0198,0.0142 c -1.22728,0.94976 -2.57075,1.59521 -3.96903,1.96525 -0.85286,0.2257 -1.7256,0.34606 -2.5989,0.36561 -0.0732,0.001 -0.14656,0.002 -0.21981,0.002 -0.0734,2.1e-4 -0.14682,-2.6e-4 -0.22019,-0.002 -0.8737,-0.0196 -1.74718,-0.13953 -2.60003,-0.36523 -1.39829,-0.37005 -2.74137,-1.01587 -3.96865,-1.96563 a 3.8284627,3.8284627 0 0 0 -0.0101,-0.007 3.8284627,3.8284627 0 0 0 -0.0224,-0.0183 c -4.89503,-3.8172 -5.75847,-10.7637 -1.94581,-15.66224 2.20688,-2.83545 5.46393,-4.31778 8.76645,-4.32753 z"
       id="path5147-3"
       inkscape:connector-curvature="0" />
    <path
       style="color:#000000;font-style:normal;font-variant:normal;font-weight:normal;font-stretch:normal;font-size:medium;line-height:normal;font-family:sans-serif;font-variant-ligatures:normal;font-variant-position:normal;font-variant-caps:normal;font-variant-numeric:normal;font-variant-alternates:normal;font-feature-settings:normal;text-indent:0;text-align:start;text-decoration:none;text-decoration-line:none;text-decoration-style:solid;text-decoration-color:#000000;letter-spacing:normal;word-spacing:normal;text-transform:none;writing-mode:lr-tb;direction:ltr;text-orientation:mixed;dominant-baseline:auto;baseline-shift:baseline;text-anchor:start;white-space:normal;shape-padding:0;clip-rule:nonzero;display:inline;overflow:visible;visibility:visible;opacity:1;isolation:auto;mix-blend-mode:normal;color-interpolation:sRGB;color-interpolation-filters:linearRGB;solid-color:#000000;solid-opacity:1;vector-effect:none;fill:#000000;fill-opacity:1;fill-rule:nonzero;stroke:none;stroke-width:7.65615988;stroke-linecap:round;stroke-linejoin:round;stroke-miterlimit:4;stroke-dasharray:none;stroke-dashoffset:0;stroke-opacity:1;paint-order:markers fill stroke;color-rendering:auto;image-rendering:auto;shape-rendering:auto;text-rendering:auto;enable-background:accumulate"
       d="m 195.59004,170.89878 c -5.65861,-0.0338 -11.27873,2.45703 -15.0009,7.23934 -6.20131,7.96748 -4.89428,19.44146 2.75629,25.90159 a 3.8284627,3.8284627 0 0 0 0.51028,0.48898 c 0.004,0.004 0.008,0.008 0.0127,0.0112 a 3.8284627,3.8284627 0 0 0 0.0224,0.0168 3.8284627,3.8284627 0 0 0 0.0325,0.0254 c 0.009,0.007 0.0184,0.0106 0.0269,0.0172 a 3.8284627,3.8284627 0 0 0 0.61198,0.38131 c 1.8842,1.3406 3.92575,2.34969 6.05688,2.91368 2.36512,0.62591 4.80855,0.77764 7.19337,0.47477 a 3.8284627,3.8284627 0 1 0 -0.96376,-7.59597 c -1.41953,0.18028 -2.8728,0.0904 -4.27107,-0.27963 -1.39828,-0.37004 -2.74175,-1.01586 -3.96902,-1.96563 a 3.8284627,3.8284627 0 0 0 -0.01,-0.007 3.8284627,3.8284627 0 0 0 -0.0228,-0.0183 c -4.89505,-3.81719 -5.75813,-10.76369 -1.94547,-15.66223 3.81267,-4.89855 10.75868,-5.76778 15.66075,-1.95965 2.40654,1.8695 3.81491,4.48475 4.20415,7.26662 -0.006,1.45319 -0.0128,2.6062 -0.0176,4.13014 -0.0128,4.10903 -0.0198,8.29877 -0.0101,11.63527 0.01,3.3365 -0.005,5.41277 0.099,6.7212 0.17592,2.21705 0.54183,3.39024 -2.47703,5.70249 0.10622,-0.0813 -1.76625,0.66 -3.38395,0.88599 -1.61773,0.226 -2.98958,0.26131 -2.98958,0.26131 a 3.8284627,3.8284627 0 1 0 0.17646,7.65392 c 0,0 1.76662,-0.0379 3.87143,-0.33197 2.10487,-0.29405 4.53909,-0.52003 6.9814,-2.39068 5.07159,-3.88452 5.69022,-9.4069 5.45388,-12.38556 0,0.009 -0.0651,-2.8316 -0.0747,-6.1395 -0.01,-3.30791 -0.004,-7.48784 0.008,-11.58854 0.005,-1.63761 0.0128,-2.88746 0.0195,-4.43931 -0.001,-2.6e-4 -0.003,-4.9e-4 -0.004,-7.2e-4 a 3.8284627,3.8284627 0 0 0 -0.0333,-0.51814 c -0.60133,-4.77017 -3.04296,-9.33605 -7.1268,-12.50855 -3.06288,-2.37937 -6.64678,-3.6576 -10.26629,-3.89537 -0.37703,-0.0248 -0.75434,-0.0381 -1.1316,-0.0404 z m 10.92873,17.40244 a 3.8284627,3.8284627 0 0 0 0.0213,0.13159 3.8284627,3.8284627 0 0 1 -0.0213,-0.13159 z"
       id="path5151-5"
       inkscape:connector-curvature="0" />
    <path
       style="color:#000000;font-style:normal;font-variant:normal;font-weight:normal;font-stretch:normal;font-size:medium;line-height:normal;font-family:sans-serif;font-variant-ligatures:normal;font-variant-position:normal;font-variant-caps:normal;font-variant-numeric:normal;font-variant-alternates:normal;font-feature-settings:normal;text-indent:0;text-align:start;text-decoration:none;text-decoration-line:none;text-decoration-style:solid;text-decoration-color:#000000;letter-spacing:normal;word-spacing:normal;text-transform:none;writing-mode:lr-tb;direction:ltr;text-orientation:mixed;dominant-baseline:auto;baseline-shift:baseline;text-anchor:start;white-space:normal;shape-padding:0;clip-rule:nonzero;display:inline;overflow:visible;visibility:visible;opacity:1;isolation:auto;mix-blend-mode:normal;color-interpolation:sRGB;color-interpolation-filters:linearRGB;solid-color:#000000;solid-opacity:1;vector-effect:none;fill:#000000;fill-opacity:1;fill-rule:nonzero;stroke:none;stroke-width:7.65615988;stroke-linecap:round;stroke-linejoin:round;stroke-miterlimit:4;stroke-dasharray:none;stroke-dashoffset:0;stroke-opacity:1;paint-order:markers fill stroke;color-rendering:auto;image-rendering:auto;shape-rendering:auto;text-rendering:auto;enable-background:accumulate"
       d="m 239.61658,171.24439 c -7.32762,0.12223 -14.25926,4.5405 -17.17832,11.72726 -3.89204,9.58236 0.75961,20.6133 10.33836,24.51422 4.78939,1.9505 9.96452,1.78236 14.39627,-0.082 a 3.8284628,3.8284628 0 1 0 -2.96855,-7.05755 c -2.63794,1.1097 -5.66521,1.2201 -8.5397,0.0494 -5.74898,-2.34125 -8.46943,-8.79207 -6.13351,-14.54322 2.33595,-5.75113 8.78285,-8.47685 14.53616,-6.14621 a 3.8284628,3.8284628 0 0 0 0.0141,0.006 3.8284628,3.8284628 0 0 0 0.024,0.01 c 1.43616,0.58797 2.66814,1.42975 3.68773,2.45566 0.0682,0.0686 0.11604,0.15302 0.18227,0.22324 l -9.8537,3.89543 a 3.8284628,3.8284628 0 1 0 2.81313,7.11972 l 14.17303,-5.60224 a 3.8284628,3.8284628 0 0 0 2.12363,-5.04131 c -0.93002,-2.21647 -2.28327,-4.2567 -4.00847,-5.99221 -1.55929,-1.56894 -3.46067,-2.83844 -5.57257,-3.80076 a 3.8284628,3.8284628 0 0 0 -0.63864,-0.3391 3.8284628,3.8284628 0 0 0 -0.006,-0.003 3.8284628,3.8284628 0 0 0 -0.01,-0.003 3.8284628,3.8284628 0 0 0 -0.0537,-0.024 c -0.014,-0.006 -0.0284,-0.007 -0.0424,-0.0127 a 3.8284628,3.8284628 0 0 0 -0.68103,-0.19781 c -2.17363,-0.77953 -4.40238,-1.19248 -6.60259,-1.15577 z"
       id="path5157-9"
       inkscape:connector-curvature="0" />
  </g>
</svg>
